<mxfile host="app.diagrams.net" modified="2024-03-22T08:22:50.298Z" agent="Mozilla/5.0 (Macintosh; Intel Mac OS X 10_15_7) AppleWebKit/537.36 (KHTML, like Gecko) Chrome/122.0.0.0 Safari/537.36" version="24.0.7" etag="2ggYKiYRCrgH5I1xnx_g" type="github">
  <diagram name="第 1 页" id="M2klEOHFM0vL6QlhD-XT">
    <mxGraphModel>
      <root>
        <mxCell id="0" />
        <mxCell id="1" parent="0" />
      </root>
    </mxGraphModel>
  </diagram>
</mxfile>
